<mxfile host="app.diagrams.net" modified="2023-02-19T04:48:17.977Z" agent="5.0 (Windows NT 10.0; Win64; x64) AppleWebKit/537.36 (KHTML, like Gecko) Chrome/110.0.0.0 Safari/537.36" etag="AJK2W4QgPFphYgN85tXG" version="20.8.20" type="github">
  <diagram id="PY-lXQE63bLjCUSireyt" name="Page-1">
    <mxGraphModel dx="1796" dy="593" grid="1" gridSize="10" guides="1" tooltips="1" connect="1" arrows="1" fold="1" page="1" pageScale="1" pageWidth="827" pageHeight="1169" math="0" shadow="0">
      <root>
        <mxCell id="0" />
        <mxCell id="1" parent="0" />
        <mxCell id="jwCAd1BBkAyQGHnNlh4i-4" style="edgeStyle=orthogonalEdgeStyle;rounded=0;orthogonalLoop=1;jettySize=auto;html=1;exitX=1;exitY=0.5;exitDx=0;exitDy=0;entryX=0;entryY=0.5;entryDx=0;entryDy=0;" parent="1" source="jwCAd1BBkAyQGHnNlh4i-1" target="jwCAd1BBkAyQGHnNlh4i-2" edge="1">
          <mxGeometry relative="1" as="geometry" />
        </mxCell>
        <mxCell id="jwCAd1BBkAyQGHnNlh4i-1" value="Population Synthesis" style="rounded=0;whiteSpace=wrap;html=1;" parent="1" vertex="1">
          <mxGeometry x="80" y="525" width="120" height="60" as="geometry" />
        </mxCell>
        <mxCell id="jwCAd1BBkAyQGHnNlh4i-5" style="edgeStyle=orthogonalEdgeStyle;rounded=0;orthogonalLoop=1;jettySize=auto;html=1;exitX=1;exitY=0.5;exitDx=0;exitDy=0;entryX=0;entryY=0.5;entryDx=0;entryDy=0;" parent="1" source="jwCAd1BBkAyQGHnNlh4i-2" target="jwCAd1BBkAyQGHnNlh4i-3" edge="1">
          <mxGeometry relative="1" as="geometry" />
        </mxCell>
        <mxCell id="jwCAd1BBkAyQGHnNlh4i-2" value="Activities generation" style="rounded=0;whiteSpace=wrap;html=1;" parent="1" vertex="1">
          <mxGeometry x="320" y="525" width="120" height="60" as="geometry" />
        </mxCell>
        <mxCell id="jwCAd1BBkAyQGHnNlh4i-6" style="edgeStyle=orthogonalEdgeStyle;rounded=0;orthogonalLoop=1;jettySize=auto;html=1;entryX=0.5;entryY=1;entryDx=0;entryDy=0;" parent="1" source="jwCAd1BBkAyQGHnNlh4i-3" target="jwCAd1BBkAyQGHnNlh4i-2" edge="1">
          <mxGeometry relative="1" as="geometry">
            <Array as="points">
              <mxPoint x="620" y="605" />
              <mxPoint x="380" y="605" />
            </Array>
          </mxGeometry>
        </mxCell>
        <mxCell id="jwCAd1BBkAyQGHnNlh4i-7" style="edgeStyle=orthogonalEdgeStyle;rounded=0;orthogonalLoop=1;jettySize=auto;html=1;entryX=0.5;entryY=1;entryDx=0;entryDy=0;" parent="1" source="jwCAd1BBkAyQGHnNlh4i-3" target="jwCAd1BBkAyQGHnNlh4i-1" edge="1">
          <mxGeometry relative="1" as="geometry">
            <Array as="points">
              <mxPoint x="620" y="605" />
              <mxPoint x="140" y="605" />
            </Array>
          </mxGeometry>
        </mxCell>
        <mxCell id="jwCAd1BBkAyQGHnNlh4i-3" value="Microscopic stimulation" style="rounded=0;whiteSpace=wrap;html=1;" parent="1" vertex="1">
          <mxGeometry x="560" y="525" width="120" height="60" as="geometry" />
        </mxCell>
        <mxCell id="g9wO3NvUFFKMFQRH4kqN-5" style="edgeStyle=orthogonalEdgeStyle;rounded=0;orthogonalLoop=1;jettySize=auto;html=1;entryX=0.5;entryY=0;entryDx=0;entryDy=0;" edge="1" parent="1" source="g9wO3NvUFFKMFQRH4kqN-1" target="g9wO3NvUFFKMFQRH4kqN-4">
          <mxGeometry relative="1" as="geometry" />
        </mxCell>
        <mxCell id="g9wO3NvUFFKMFQRH4kqN-1" value="Aggregated data (Census)" style="rounded=0;whiteSpace=wrap;html=1;" vertex="1" parent="1">
          <mxGeometry x="-430" y="780" width="120" height="60" as="geometry" />
        </mxCell>
        <mxCell id="g9wO3NvUFFKMFQRH4kqN-7" style="edgeStyle=orthogonalEdgeStyle;rounded=0;orthogonalLoop=1;jettySize=auto;html=1;entryX=0.5;entryY=0;entryDx=0;entryDy=0;" edge="1" parent="1" source="g9wO3NvUFFKMFQRH4kqN-2" target="g9wO3NvUFFKMFQRH4kqN-4">
          <mxGeometry relative="1" as="geometry">
            <Array as="points">
              <mxPoint x="-256" y="810" />
            </Array>
          </mxGeometry>
        </mxCell>
        <mxCell id="g9wO3NvUFFKMFQRH4kqN-2" value="Disaggregated data (Travel survey)" style="rounded=0;whiteSpace=wrap;html=1;" vertex="1" parent="1">
          <mxGeometry x="-200" y="780" width="120" height="60" as="geometry" />
        </mxCell>
        <mxCell id="g9wO3NvUFFKMFQRH4kqN-4" value="Synthesized population" style="ellipse;whiteSpace=wrap;html=1;aspect=fixed;" vertex="1" parent="1">
          <mxGeometry x="-296" y="930" width="80" height="80" as="geometry" />
        </mxCell>
      </root>
    </mxGraphModel>
  </diagram>
</mxfile>
